<svg width="28" height="29" viewBox="0 0 28 29" fill="none" xmlns="http://www.w3.org/2000/svg">
<g clip-path="url(#clip0_8_464)">
<path d="M25.0132 12.6989L6.95322 3.66887C6.70959 3.55599 6.44158 3.50584 6.17361 3.52298C5.90564 3.54013 5.64622 3.62402 5.41895 3.76703C5.19168 3.91004 5.00379 4.10762 4.87238 4.34179C4.74097 4.57595 4.67022 4.83927 4.66656 5.10776V23.16C4.66428 23.4356 4.73314 23.7071 4.86649 23.9483C4.99983 24.1896 5.19314 24.3923 5.42774 24.537C5.66234 24.6816 5.93029 24.7633 6.20569 24.7742C6.4811 24.785 6.75465 24.7246 6.99989 24.5989L25.0132 15.5689C25.2801 15.4349 25.5044 15.2294 25.6612 14.9753C25.8179 14.7212 25.9009 14.4285 25.9009 14.13C25.9009 13.8314 25.8179 13.5387 25.6612 13.2846C25.5044 13.0305 25.2801 12.825 25.0132 12.6911V12.6989Z" fill="#458588"/>
</g>
<defs>
<clipPath id="clip0_8_464">
<rect width="28" height="28" fill="white" transform="translate(0 0.1922)"/>
</clipPath>
</defs>
</svg>
