<svg width="28" height="19" viewBox="0 0 28 19" fill="none" xmlns="http://www.w3.org/2000/svg">
<path d="M11.2778 8.58864C12.8236 7.84975 13.6306 6.73169 13.6306 4.99141C13.6306 1.55947 11.0736 0.723358 8.12292 0.723358H0V17.9511H8.35139C11.4819 17.9511 14.4229 16.4491 14.4229 12.9491C14.4229 10.7859 13.3972 9.18655 11.2778 8.58864ZM3.78681 3.66433H7.34028C8.70625 3.66433 9.93611 4.04836 9.93611 5.63308C9.93611 7.09627 8.97847 7.68447 7.62708 7.68447H3.78681V3.66433ZM7.83611 15.0247H3.78681V10.2803H7.91389C9.58125 10.2803 10.6361 10.9754 10.6361 12.74C10.6361 14.4803 9.37708 15.0247 7.83611 15.0247ZM25.2632 3.32405H18.2778V1.62752H25.2632V3.32405ZM28 11.8942C28 8.20461 25.8417 5.12752 21.9285 5.12752C18.1271 5.12752 15.5458 7.98586 15.5458 11.7289C15.5458 15.6129 17.991 18.2768 21.9285 18.2768C24.9083 18.2768 26.8382 16.9352 27.7667 14.0817H24.7431C24.4174 15.1463 23.0757 15.7102 22.0354 15.7102C20.0278 15.7102 18.9729 14.5338 18.9729 12.5359H27.9708C27.9854 12.3317 28 12.1129 28 11.8942ZM18.9778 10.3775C19.0896 8.73933 20.1785 7.71364 21.8215 7.71364C23.5424 7.71364 24.4076 8.72475 24.5535 10.3775H18.9778Z" fill="#458588"/>
</svg>
