<svg width="31" height="28" viewBox="0 0 31 28" fill="none" xmlns="http://www.w3.org/2000/svg">
<g clip-path="url(#clip0_19_13)">
<path d="M30.4608 6.38031C30.947 7.07302 31.0563 7.85688 30.789 8.73188L25.7759 25.2475C25.545 26.0253 25.0802 26.6785 24.3814 27.2071C23.6826 27.7358 22.9383 28.0001 22.1483 28.0001H5.32282C4.38706 28.0001 3.48472 27.675 2.61579 27.0248C1.74687 26.3747 1.14227 25.5756 0.801991 24.6277C0.510325 23.8135 0.498172 23.0418 0.765533 22.3126C0.765533 22.264 0.783762 22.0999 0.82022 21.8204C0.856679 21.5409 0.880984 21.3161 0.893137 21.1459C0.90529 21.0487 0.887061 20.9181 0.83845 20.754C0.789839 20.5899 0.771609 20.4715 0.783762 20.3985C0.808068 20.2649 0.856679 20.1373 0.929596 20.0157C1.00251 19.8942 1.10277 19.7514 1.23038 19.5873C1.35798 19.4233 1.45824 19.2805 1.53116 19.159C1.81067 18.6972 2.08411 18.1412 2.35147 17.491C2.61883 16.8408 2.80112 16.2848 2.89835 15.823C2.9348 15.7015 2.93784 15.5192 2.90746 15.2761C2.87708 15.0331 2.87404 14.863 2.89835 14.7657C2.9348 14.6321 3.0381 14.4619 3.20824 14.2553C3.37838 14.0487 3.48168 13.909 3.51814 13.836C3.77335 13.3985 4.02855 12.8395 4.28376 12.159C4.53897 11.4784 4.69088 10.9315 4.73949 10.5183C4.75164 10.409 4.73645 10.2145 4.69392 9.935C4.65138 9.65549 4.65442 9.48535 4.70303 9.42459C4.75164 9.2666 4.88532 9.08127 5.10407 8.8686C5.32282 8.65592 5.4565 8.5192 5.50512 8.45844C5.73602 8.14247 5.99427 7.62901 6.27986 6.91808C6.56545 6.20714 6.73255 5.62077 6.78116 5.15896C6.79331 5.06174 6.77508 4.90679 6.72647 4.69412C6.67786 4.48144 6.66571 4.32042 6.69001 4.21104C6.71432 4.11382 6.769 4.00445 6.85407 3.88292C6.93914 3.76139 7.04852 3.62163 7.1822 3.46365C7.31588 3.30566 7.41918 3.17806 7.4921 3.08084C7.58932 2.935 7.68958 2.74967 7.79288 2.52485C7.89617 2.30002 7.98732 2.08735 8.06631 1.88683C8.14531 1.6863 8.24253 1.46755 8.35798 1.23058C8.47343 0.993596 8.59192 0.799152 8.71345 0.647242C8.83498 0.495332 8.996 0.352537 9.19652 0.218857C9.39704 0.0851763 9.61579 0.0152978 9.85277 0.00922139C10.0898 0.00314501 10.3784 0.0365651 10.7187 0.109482L10.7004 0.164169C11.1622 0.0547943 11.4721 0.000106812 11.6301 0.000106812H25.5025C26.4018 0.000106812 27.0945 0.340385 27.5806 1.02094C28.0667 1.7015 28.1761 2.49143 27.9088 3.39073L22.914 19.9064C22.4765 21.3525 22.042 22.2853 21.6106 22.7045C21.1792 23.1238 20.3983 23.3334 19.2681 23.3334H3.42699C3.09887 23.3334 2.86796 23.4246 2.73428 23.6069C2.6006 23.8013 2.59453 24.0626 2.71605 24.3907C3.00772 25.2414 3.88272 25.6668 5.34105 25.6668H22.1666C22.519 25.6668 22.8593 25.5726 23.1874 25.3842C23.5155 25.1959 23.7282 24.9437 23.8254 24.6277L29.2942 6.63552C29.3792 6.36816 29.4096 6.02181 29.3853 5.59646C29.8471 5.77875 30.2056 6.04004 30.4608 6.38031ZM11.065 6.41677C11.0164 6.57476 11.0286 6.71148 11.1015 6.82693C11.1744 6.94238 11.2959 7.00011 11.4661 7.00011H22.5494C22.7074 7.00011 22.8623 6.94238 23.0142 6.82693C23.1661 6.71148 23.2664 6.57476 23.315 6.41677L23.6978 5.25011C23.7464 5.09212 23.7343 4.9554 23.6614 4.83995C23.5884 4.7245 23.4669 4.66677 23.2968 4.66677H12.2134C12.0555 4.66677 11.9005 4.7245 11.7486 4.83995C11.5967 4.9554 11.4964 5.09212 11.4478 5.25011L11.065 6.41677ZM9.55199 11.0834C9.50338 11.2414 9.51553 11.3781 9.58845 11.4936C9.66137 11.609 9.78289 11.6668 9.95303 11.6668H21.0364C21.1944 11.6668 21.3493 11.609 21.5012 11.4936C21.6531 11.3781 21.7534 11.2414 21.802 11.0834L22.1848 9.91677C22.2334 9.75879 22.2213 9.62207 22.1483 9.50662C22.0754 9.39117 21.9539 9.33344 21.7838 9.33344H10.7004C10.5424 9.33344 10.3875 9.39117 10.2356 9.50662C10.0837 9.62207 9.98341 9.75879 9.9348 9.91677L9.55199 11.0834Z" fill="#458588"/>
</g>
<defs>
<clipPath id="clip0_19_13">
<rect width="30.9167" height="28" fill="white"/>
</clipPath>
</defs>
</svg>
