<svg width="28" height="33" viewBox="0 0 28 33" fill="none" xmlns="http://www.w3.org/2000/svg">
<path d="M7.5075 13.8849C7.265 13.7036 7.02187 13.613 6.77938 13.613H5.68937V20.1424H6.78C7.0225 20.1424 7.26562 20.0518 7.50812 19.8705C7.75062 19.6893 7.87187 19.4174 7.87187 19.0543V14.7011C7.87125 14.3386 7.74938 14.0661 7.5075 13.8849ZM25.2563 2.86676H2.74375C1.23125 2.86676 0.00375 4.09114 0 5.60426V28.1293C0.00375 29.6424 1.23125 30.8668 2.74375 30.8668H25.2563C26.7694 30.8668 27.9963 29.6424 28 28.1293V5.60426C27.9963 4.09114 26.7688 2.86676 25.2563 2.86676ZM9.6375 19.0661C9.6375 20.2418 8.91187 22.023 6.615 22.0193H3.715V11.678H6.67625C8.89125 11.678 9.63625 13.4568 9.63688 14.633L9.6375 19.0661ZM15.93 13.5249H12.6V15.9261H14.6356V17.7743H12.6V20.1749H15.9306V22.023H12.0444C11.3469 22.0411 10.7669 21.4899 10.7494 20.7924V12.973C10.7325 12.2761 11.2844 11.6974 11.9812 11.6799H15.9306L15.93 13.5249ZM22.4075 20.7305C21.5825 22.6524 20.1044 22.2699 19.4425 20.7305L17.0344 11.6805H19.07L20.9269 18.788L22.775 11.6805H24.8113L22.4075 20.7305Z" fill="#458588"/>
</svg>
