<svg width="28" height="28" viewBox="0 0 28 28" fill="none" xmlns="http://www.w3.org/2000/svg">
<g clip-path="url(#clip0_6_292)">
<path d="M14 0.437592C6.52159 0.437592 0.4375 6.52169 0.4375 14.0001C0.4375 21.4785 6.52159 27.5626 14 27.5626C21.4784 27.5626 27.5625 21.4785 27.5625 14.0001C27.5625 6.52169 21.4784 0.437592 14 0.437592ZM22.9671 6.69198C24.5806 8.66325 25.5576 11.174 25.5831 13.9083C25.2011 13.8275 21.3712 13.0507 17.5166 13.5354C17.202 12.7675 16.9051 12.092 16.4985 11.2596C20.7816 9.5109 22.7229 7.02235 22.9671 6.69198ZM21.6793 5.35236C21.4709 5.64915 19.7271 7.993 15.6078 9.53699C13.7095 6.04924 11.6055 3.18405 11.2853 2.7553C14.959 1.86975 18.8303 2.82476 21.6793 5.35236ZM9.0749 3.534C9.38033 3.95285 11.4504 6.82159 13.3699 10.2337C7.95107 11.6727 3.17833 11.652 2.66022 11.6451C3.41141 8.05036 5.83395 5.06268 9.0749 3.534ZM2.41555 14.0178C2.41555 13.8993 2.4179 13.7814 2.42145 13.6638C2.9283 13.6742 8.54208 13.7465 14.3273 12.0152C14.6589 12.6642 14.9757 13.323 15.2665 13.9811C11.0774 15.161 7.27147 18.549 5.39366 21.7635C3.54342 19.7097 2.41555 16.9931 2.41555 14.0178ZM6.88937 23.1567C8.09944 20.6831 11.3835 17.4899 16.0538 15.8967C17.6803 20.1231 18.3529 23.6652 18.5251 24.6815C14.8002 26.2682 10.3212 25.8329 6.88937 23.1567ZM20.4726 23.621C20.3539 22.9163 19.7373 19.5251 18.2221 15.3614C21.8523 14.7803 25.0417 15.7315 25.438 15.8566C24.9216 19.0799 23.0715 21.8637 20.4726 23.621Z" fill="#458588"/>
</g>
<defs>
<clipPath id="clip0_6_292">
<rect width="28" height="28" fill="white"/>
</clipPath>
</defs>
</svg>
