<svg width="28" height="39" viewBox="0 0 28 39" fill="none" xmlns="http://www.w3.org/2000/svg">
<g clip-path="url(#clip0_19_7)">
<path d="M1.021 7.85161C1.021 3.99403 4.14825 0.866776 8.0059 0.866776H19.9911C23.8487 0.866776 26.976 3.99403 26.976 7.85161C26.976 10.2943 25.7221 12.4442 23.8228 13.6926C25.7221 14.9411 26.976 17.0909 26.976 19.5336C26.976 23.3912 23.8487 26.5185 19.9911 26.5185H19.8394C18.0309 26.5185 16.3829 25.8312 15.1425 24.7035V31.1394C15.1425 35.0484 11.9335 38.2001 8.04353 38.2001C4.1955 38.2001 1.021 35.0824 1.021 31.2152C1.021 28.7726 2.2748 26.6229 4.17391 25.3744C2.27465 24.126 1.021 21.9762 1.021 19.5336C1.021 17.0909 2.27487 14.9411 4.17406 13.6926C2.27494 12.4442 1.021 10.2943 1.021 7.85161ZM12.8545 14.8367H8.0059C5.41182 14.8367 3.30898 16.9396 3.30898 19.5336C3.30898 22.1176 5.39563 24.2143 7.97586 24.2304L8.0059 24.2304H12.8545V14.8367ZM15.1425 19.5336C15.1425 22.1276 17.2453 24.2305 19.8394 24.2305H19.9911C22.5852 24.2305 24.688 22.1276 24.688 19.5336C24.688 16.9396 22.5852 14.8367 19.9911 14.8367H19.8394C17.2453 14.8367 15.1425 16.9396 15.1425 19.5336ZM8.0059 26.5185L7.97586 26.5184C5.39563 26.5345 3.30898 28.6312 3.30898 31.2152C3.30898 33.7997 5.43996 35.9121 8.04353 35.9121C10.6891 35.9121 12.8545 33.7658 12.8545 31.1394V26.5185H8.0059V26.5185ZM8.0059 3.15475C5.41182 3.15475 3.30898 5.25767 3.30898 7.85161C3.30898 10.4457 5.41189 12.5485 8.0059 12.5485H12.8545V3.15468H8.0059V3.15475ZM15.1425 12.5485H19.9911C22.5852 12.5485 24.688 10.4457 24.688 7.85161C24.688 5.2576 22.5852 3.15475 19.9911 3.15475H15.1425V12.5485Z" fill="#458588"/>
</g>
<defs>
<clipPath id="clip0_19_7">
<rect width="28" height="37.3333" fill="white" transform="translate(0 0.866776)"/>
</clipPath>
</defs>
</svg>
