<svg width="28" height="33" viewBox="0 0 28 33" fill="none" xmlns="http://www.w3.org/2000/svg">
<g clip-path="url(#clip0_7_390)">
<path d="M28.0002 3.93758V24.9376C24.0627 26.3751 22.8752 26.9376 20.5627 26.9376C16.6252 26.9376 15.1252 24.9376 11.1877 24.9376C9.93766 24.9376 8.93766 25.1876 8.00016 25.4376V21.4376C8.93766 21.1876 9.93766 20.9376 11.1877 20.9376C15.1252 20.9376 16.6252 22.9376 20.5627 22.9376C21.8127 22.9376 22.7502 22.7501 24.0002 22.3751V9.37508C22.7502 9.75008 21.8127 9.93758 20.5627 9.93758C16.6252 9.93758 15.1252 7.93758 11.1877 7.93758C8.00016 7.93758 6.50016 9.25008 4.00016 9.75008V28.9376C4.00352 29.2012 3.95408 29.4627 3.85476 29.7069C3.75544 29.9511 3.60825 30.1729 3.42186 30.3593C3.23547 30.5457 3.01365 30.6929 2.76948 30.7922C2.52531 30.8915 2.26373 30.9409 2.00016 30.9376C1.73659 30.9409 1.47501 30.8915 1.23084 30.7922C0.98667 30.6929 0.764854 30.5457 0.578464 30.3593C0.392074 30.1729 0.244881 29.9511 0.145561 29.7069C0.0462403 29.4627 -0.00319776 29.2012 0.000160283 28.9376V4.93758C-0.00319776 4.67401 0.0462403 4.41243 0.145561 4.16826C0.244881 3.92409 0.392074 3.70228 0.578464 3.51589C0.764854 3.3295 0.98667 3.1823 1.23084 3.08298C1.47501 2.98366 1.73659 2.93423 2.00016 2.93758C2.26373 2.93423 2.52531 2.98366 2.76948 3.08298C3.01365 3.1823 3.23547 3.3295 3.42186 3.51589C3.60825 3.70228 3.75544 3.92409 3.85476 4.16826C3.95408 4.41243 4.00352 4.67401 4.00016 4.93758V5.75008C6.50016 5.25008 8.00016 3.93758 11.1877 3.93758C15.1252 3.93758 16.6252 5.93758 20.5627 5.93758C22.8752 5.93758 24.0627 5.37508 28.0002 3.93758Z" fill="#458588"/>
</g>
<defs>
<clipPath id="clip0_7_390">
<rect width="28" height="32" fill="white" transform="translate(0 0.937592)"/>
</clipPath>
</defs>
</svg>
