<svg width="28" height="30" viewBox="0 0 28 30" fill="none" xmlns="http://www.w3.org/2000/svg">
<path d="M10.8558 19.1743C10.8558 20.3934 10.22 22.3884 8.715 22.3884C7.21 22.3884 6.57417 20.3934 6.57417 19.1743C6.57417 17.9551 7.21 15.9601 8.715 15.9601C10.22 15.9601 10.8558 17.9551 10.8558 19.1743ZM28 16.2284C28 18.0893 27.8133 20.0609 26.9792 21.7701C24.7683 26.2384 18.69 26.1334 14.3383 26.1334C9.91667 26.1334 3.47667 26.2909 1.17833 21.7701C0.326667 20.0784 0 18.0893 0 16.2284C0 13.7843 0.810833 11.4743 2.42083 9.60176C2.1175 8.68009 1.97167 7.71176 1.97167 6.75509C1.97167 5.50093 2.2575 4.87093 2.82333 3.73343C5.46583 3.73343 7.1575 4.25843 9.17 5.83343C10.8617 5.43093 12.6 5.25009 14.3442 5.25009C15.9192 5.25009 17.5058 5.41926 19.0342 5.78676C21.0175 4.22926 22.7092 3.73343 25.3225 3.73343C25.8942 4.87093 26.1742 5.50093 26.1742 6.75509C26.1742 7.71176 26.0225 8.66259 25.725 9.56676C27.3292 11.4568 28 13.7843 28 16.2284ZM24.2492 19.1743C24.2492 16.6134 22.6917 14.3559 19.9617 14.3559C18.8592 14.3559 17.8033 14.5543 16.695 14.7059C15.8258 14.8401 14.9567 14.8926 14.0642 14.8926C13.1775 14.8926 12.3083 14.8401 11.4333 14.7059C10.3425 14.5543 9.275 14.3559 8.16667 14.3559C5.43667 14.3559 3.87917 16.6134 3.87917 19.1743C3.87917 24.2959 8.56917 25.0834 12.6525 25.0834H15.4642C19.565 25.0834 24.2492 24.3018 24.2492 19.1743ZM19.4308 15.9601C17.9258 15.9601 17.29 17.9551 17.29 19.1743C17.29 20.3934 17.9258 22.3884 19.4308 22.3884C20.9358 22.3884 21.5717 20.3934 21.5717 19.1743C21.5717 17.9551 20.9358 15.9601 19.4308 15.9601Z" fill="#458588"/>
</svg>
