<svg width="28" height="29" viewBox="0 0 28 29" fill="none" xmlns="http://www.w3.org/2000/svg">
<g clip-path="url(#clip0_7_397)">
<path d="M27.2038 12.4141C27.367 13.3538 27.4484 14.3059 27.447 15.2596C27.447 19.5191 25.9245 23.1206 23.275 25.5584H23.2785C20.9615 27.6986 17.7765 28.9376 14 28.9376C10.287 28.9376 6.72602 27.4626 4.10051 24.8371C1.475 22.2116 0 18.6506 0 14.9376C0 11.2246 1.475 7.66361 4.10051 5.03811C6.72602 2.4126 10.287 0.9376 14 0.9376C17.4754 0.896898 20.8317 2.20256 23.366 4.5811L19.369 8.5781C17.9242 7.20081 15.9959 6.44658 14 6.4781C10.3478 6.4781 7.245 8.9421 6.139 12.2601C5.55259 13.9987 5.55259 15.8817 6.139 17.6203H6.14425C7.2555 20.9331 10.353 23.3971 14.0053 23.3971C15.8918 23.3971 17.5123 22.9141 18.7688 22.0601H18.7635C19.4931 21.5768 20.1172 20.9506 20.5981 20.2194C21.0791 19.4882 21.4069 18.6672 21.5618 17.8059H14V12.4158H27.2038V12.4141Z" fill="#458588"/>
</g>
<defs>
<clipPath id="clip0_7_397">
<rect width="28" height="28" fill="white" transform="translate(0 0.937592)"/>
</clipPath>
</defs>
</svg>
