<svg width="28" height="29" viewBox="0 0 28 29" fill="none" xmlns="http://www.w3.org/2000/svg">
<g clip-path="url(#clip0_6_240)">
<path d="M1.92453 10.2237C-0.640859 12.7394 -0.640859 16.9448 1.92453 19.5097L9.35711 26.9417C11.8727 29.5065 16.0782 29.5065 18.643 26.9417L26.0751 19.5097C28.6399 16.9448 28.6399 12.7394 26.0751 10.2237L18.643 2.79115C16.0782 0.225763 11.8727 0.225763 9.35711 2.79115L1.92453 10.2237ZM17.254 18.1206C15.4548 19.9144 12.5454 19.9144 10.7516 18.1206C8.95242 16.3214 8.95242 13.412 10.7516 11.6183C12.5454 9.81905 15.4548 9.81905 17.254 11.6183C19.0477 13.412 19.0477 16.3214 17.254 18.1206Z" fill="#458588"/>
</g>
<defs>
<clipPath id="clip0_6_240">
<rect width="28" height="28" fill="white" transform="translate(0 0.86676)"/>
</clipPath>
</defs>
</svg>
