<svg width="28" height="32" viewBox="0 0 28 32" fill="none" xmlns="http://www.w3.org/2000/svg">
<g clip-path="url(#clip0_8_481)">
<path d="M6.2675 28.0001H0.4625V9.30634H6.2675V28.0001ZM3.36188 6.75634C1.50563 6.75634 0 5.21884 0 3.36259C1.32862e-08 2.47097 0.354197 1.61586 0.98467 0.985387C1.61514 0.354913 2.47025 0.000716209 3.36188 0.000716209C4.2535 0.000716209 5.10861 0.354913 5.73908 0.985387C6.36955 1.61586 6.72375 2.47097 6.72375 3.36259C6.72375 5.21884 5.2175 6.75634 3.36188 6.75634ZM27.9937 28.0001H22.2013V18.9001C22.2013 16.7313 22.1575 13.9501 19.1831 13.9501C16.165 13.9501 15.7025 16.3063 15.7025 18.7438V28.0001H9.90375V9.30634H15.4712V11.8563H15.5525C16.3275 10.3876 18.2206 8.83759 21.045 8.83759C26.92 8.83759 28 12.7063 28 17.7313V28.0001H27.9937Z" fill="#458588"/>
</g>
<defs>
<clipPath id="clip0_8_481">
<rect width="28" height="32" fill="white"/>
</clipPath>
</defs>
</svg>
