<svg width="28" height="29" viewBox="0 0 28 29" fill="none" xmlns="http://www.w3.org/2000/svg">
<path d="M4.92583 23.2665C5.46701 23.8085 6.10995 24.2382 6.81771 24.5309C7.52547 24.8236 8.28409 24.9736 9.04999 24.9722C9.81606 24.9735 10.5748 24.8236 11.2828 24.5309C11.9907 24.2381 12.6339 23.8085 13.1753 23.2665L16.4747 19.966L14.825 18.3164L11.5257 21.6169C10.8682 22.2714 9.97828 22.6388 9.05058 22.6388C8.12288 22.6388 7.23294 22.2714 6.57549 21.6169C5.92041 20.9597 5.55257 20.0697 5.55257 19.1418C5.55257 18.2139 5.92041 17.3239 6.57549 16.6667L9.87599 13.3674L8.22633 11.7177L4.92583 15.017C3.8336 16.1119 3.22021 17.5953 3.22021 19.1418C3.22021 20.6883 3.8336 22.1717 4.92583 23.2665ZM23.0745 13.3674C24.1662 12.2722 24.7791 10.7889 24.7791 9.24262C24.7791 7.6963 24.1662 6.21304 23.0745 5.11787C21.9796 4.02565 20.4963 3.41226 18.9497 3.41226C17.4032 3.41226 15.9199 4.02565 14.825 5.11787L11.5257 8.41837L13.1753 10.068L16.4747 6.76754C17.1321 6.11303 18.022 5.74557 18.9497 5.74557C19.8774 5.74557 20.7674 6.11303 21.4248 6.76754C22.0799 7.42469 22.4478 8.31474 22.4478 9.24262C22.4478 10.1705 22.0799 11.0606 21.4248 11.7177L18.1243 15.017L19.774 16.6667L23.0745 13.3674Z" fill="#458588"/>
<path d="M9.87447 19.9672L8.22363 18.3175L18.1251 8.41721L19.7748 10.068L9.87447 19.9672Z" fill="#458588"/>
</svg>
