<svg width="28" height="24" viewBox="0 0 28 24" fill="none" xmlns="http://www.w3.org/2000/svg">
<path d="M7.89687 4.13794C3.53557 4.13794 0 7.69792 0 12.089C0 16.48 3.53583 20.04 7.89687 20.04C12.2579 20.04 15.7937 16.4803 15.7937 12.089C15.7937 7.69766 12.2584 4.13794 7.89687 4.13794ZM20.5078 4.6037C18.3271 4.6037 16.5596 7.95578 16.5596 12.0891C16.5596 16.2224 18.3274 19.5747 20.5081 19.5747C22.6888 19.5747 24.4566 16.2227 24.4566 12.0891H24.4562C24.4562 7.9546 22.6887 4.6037 20.5079 4.6037H20.5078ZM26.6112 5.38337C25.8444 5.38337 25.2228 8.38585 25.2228 12.0891C25.2228 15.7924 25.844 18.7948 26.6112 18.7948C27.3784 18.7948 28 15.7916 28 12.089C28 8.38558 27.3781 5.38337 26.6113 5.38337H26.6112Z" fill="#458588"/>
</svg>
