<svg width="28" height="29" viewBox="0 0 28 29" fill="none" xmlns="http://www.w3.org/2000/svg">
<g clip-path="url(#clip0_7_382)">
<path d="M5.2046 5.77464C6.07085 6.48076 6.39897 6.43089 8.03435 6.32151L23.4518 5.39664C23.78 5.39664 23.507 5.06851 23.3967 5.01338L20.8356 3.16276C20.3482 2.77951 19.692 2.34726 18.4381 2.45139L3.51322 3.54514C2.96635 3.59501 2.85697 3.86889 3.07572 4.08764L5.2046 5.77464ZM6.12947 9.37088V25.5899C6.12947 26.4605 6.5626 26.7886 7.5426 26.7335L24.487 25.7535C25.467 25.6984 25.5807 25.1016 25.5807 24.3911V8.28151C25.5807 7.57014 25.3068 7.19213 24.7057 7.24726L7.00097 8.28151C6.34472 8.33664 6.13035 8.65951 6.13035 9.36651L6.12947 9.37088ZM22.8551 10.2363C22.9645 10.7289 22.8551 11.2163 22.3625 11.2758L21.547 11.4403V23.412C20.8356 23.7953 20.1846 24.014 19.6421 24.014C18.7671 24.014 18.5483 23.7401 17.8965 22.9246L12.5555 14.5395V22.6516L14.246 23.0349C14.246 23.0349 14.246 24.0149 12.8836 24.0149L9.12372 24.2336C9.01435 24.0149 9.12372 23.468 9.50697 23.363L10.487 23.0891V12.366L9.1246 12.2566C9.01522 11.764 9.2891 11.0579 10.0495 11.0036L14.0823 10.7298L19.6421 19.2243V11.7089L18.2246 11.5444C18.1152 10.9476 18.5483 10.5101 19.0952 10.4594L22.8551 10.2363ZM2.26022 2.07426L17.7871 0.930635C19.692 0.766135 20.1846 0.87551 21.3825 1.74614L26.3411 5.23213C27.1566 5.82889 27.4305 5.99339 27.4305 6.64526V25.7544C27.4305 26.9531 26.993 27.6593 25.4705 27.7686L7.43235 28.858C6.2931 28.9131 5.74622 28.7486 5.14422 27.9874L1.49372 23.2475C0.841848 22.3769 0.568848 21.725 0.568848 20.9646V3.98001C0.568848 3.00001 1.00635 2.18451 2.25935 2.07514L2.26022 2.07426Z" fill="#458588"/>
</g>
<defs>
<clipPath id="clip0_7_382">
<rect width="28" height="28" fill="white" transform="translate(0 0.86676)"/>
</clipPath>
</defs>
</svg>
