<svg width="28" height="25" viewBox="0 0 28 25" fill="none" xmlns="http://www.w3.org/2000/svg">
<g clip-path="url(#clip0_7_388)">
<path d="M23.0216 8.07474C22.7236 7.9725 22.4231 7.87779 22.1203 7.79069C22.1712 7.58288 22.218 7.37758 22.2596 7.1759C22.9418 3.86391 22.4958 1.19571 20.9723 0.317209C19.5116 -0.524978 17.1228 0.353193 14.7102 2.45287C14.4724 2.66017 14.2399 2.87344 14.0129 3.09249C13.8609 2.94683 13.7063 2.804 13.549 2.66407C11.0205 0.419037 8.48608 -0.527166 6.96423 0.35385C5.50484 1.19866 5.0727 3.70696 5.68695 6.8458C5.74806 7.15667 5.81707 7.46594 5.89389 7.7733C5.53514 7.87524 5.18897 7.98374 4.85767 8.09924C1.89317 9.13283 0 10.7526 0 12.4327C0 14.1679 2.03241 15.9084 5.12006 16.9638C5.37038 17.049 5.62279 17.1279 5.87705 17.2006C5.79447 17.5316 5.72116 17.8649 5.6572 18.2C5.07161 21.2844 5.52891 23.7334 6.98436 24.5729C8.48761 25.4398 11.0107 24.5488 13.4673 22.4012C13.6666 22.2266 13.8614 22.0471 14.0516 21.8628C14.2975 22.1 14.5498 22.3302 14.8085 22.5534C17.1883 24.6011 19.5385 25.428 20.9926 24.5862C22.4944 23.7168 22.9825 21.0859 22.3488 17.885C22.2989 17.6343 22.2429 17.3847 22.1809 17.1367C22.3581 17.0842 22.532 17.0301 22.7015 16.9739C25.9115 15.9105 28 14.1911 28 12.4327C28 10.7464 26.0457 9.11577 23.0216 8.07474ZM22.3254 15.8386C22.1723 15.8893 22.0152 15.9381 21.8551 15.9857C21.5007 14.8639 21.0225 13.671 20.4373 12.4385C20.9957 11.2353 21.4555 10.0577 21.8 8.94318C22.0864 9.02608 22.3643 9.11347 22.6323 9.20568C25.2234 10.0977 26.8039 11.4165 26.8039 12.4327C26.8039 13.5151 25.097 14.9202 22.3254 15.8386ZM21.1754 18.1173C21.4557 19.5326 21.4956 20.8123 21.31 21.8128C21.1433 22.7117 20.8079 23.311 20.3932 23.5511C19.5109 24.0619 17.6238 23.398 15.5887 21.6466C15.3481 21.4392 15.1133 21.2251 14.8846 21.0046C15.6737 20.1418 16.4621 19.1387 17.2317 18.0246C18.5853 17.9045 19.8641 17.7081 21.0238 17.44C21.0797 17.6645 21.1303 17.8904 21.1754 18.1173ZM9.54581 23.4628C8.68372 23.7672 7.99706 23.776 7.58198 23.5366C6.69878 23.0273 6.33161 21.0608 6.83244 18.4231C6.89197 18.1115 6.96014 17.8015 7.03686 17.4936C8.18377 17.7473 9.45328 17.9298 10.8101 18.0398C11.5849 19.1299 12.3961 20.1319 13.2137 21.0093C13.04 21.1774 12.8621 21.3413 12.6803 21.5006C11.5939 22.4502 10.5052 23.124 9.54581 23.4628ZM5.50703 15.8319C4.1417 15.3652 3.01416 14.7588 2.24131 14.0969C1.54678 13.5023 1.19623 12.9117 1.19623 12.4327C1.19623 11.4131 2.71622 10.1126 5.25142 9.22876C5.55909 9.12157 5.88109 9.0204 6.21523 8.92546C6.56567 10.0651 7.02527 11.2568 7.57991 12.4618C7.01805 13.6846 6.55189 14.8953 6.19806 16.0484C5.96598 15.9819 5.73557 15.9097 5.50703 15.8319ZM6.86088 6.61601C6.33467 3.9268 6.68412 1.89822 7.56361 1.38908C8.5003 0.846803 10.5716 1.61997 12.7549 3.55854C12.8972 3.68524 13.0373 3.8145 13.175 3.94627C12.3615 4.81985 11.5577 5.8144 10.7897 6.89808C9.47286 7.02015 8.21231 7.21615 7.05337 7.47876C6.98197 7.19287 6.91778 6.90523 6.86088 6.61612V6.61601ZM18.9388 9.59844C18.6651 9.12561 18.3812 8.65872 18.0873 8.19812C18.9807 8.3111 19.8367 8.46105 20.6405 8.64437C20.3992 9.41786 20.0984 10.2265 19.7444 11.0555C19.4856 10.5645 19.217 10.0787 18.9388 9.59844ZM14.0135 4.80115C14.5651 5.39888 15.1177 6.06618 15.6612 6.79024C14.5587 6.73817 13.4543 6.73795 12.3518 6.78958C12.8959 6.07219 13.4531 5.40577 14.0135 4.80115ZM9.05647 9.60665C8.78176 10.0831 8.5182 10.5658 8.26602 11.0546C7.91777 10.2284 7.61972 9.41611 7.37636 8.63168C8.17523 8.45296 9.02716 8.30683 9.91484 8.19593C9.61772 8.65935 9.33151 9.12968 9.05647 9.60654V9.60665ZM9.94033 16.7545C9.02322 16.6521 8.1585 16.5136 7.35984 16.3397C7.60703 15.5412 7.91164 14.7116 8.26744 13.8678C8.52062 14.3569 8.78527 14.8399 9.06117 15.3166C9.34489 15.8066 9.63867 16.2865 9.94033 16.7545ZM14.0465 20.1484C13.4795 19.5368 12.914 18.8601 12.3618 18.1323C12.8979 18.1533 13.4445 18.164 14 18.164C14.5707 18.164 15.1349 18.1512 15.6902 18.1265C15.1449 18.8674 14.5945 19.5451 14.0465 20.1484ZM19.7556 13.8247C20.1299 14.6778 20.4454 15.5031 20.6958 16.2878C19.884 16.4731 19.0075 16.6223 18.084 16.7331C18.3799 16.2639 18.6665 15.7889 18.9435 15.3084C19.2252 14.8199 19.496 14.3252 19.7556 13.8247ZM17.9074 14.7107C17.4833 15.4475 17.0353 16.1703 16.5642 16.878C15.7108 16.9384 14.8555 16.9685 14 16.968C13.1286 16.968 12.2811 16.9409 11.4649 16.888C10.9815 16.1819 10.525 15.4579 10.0963 14.7173H10.0964C9.66976 13.9807 9.27123 13.2281 8.9017 12.4612C9.27029 11.6942 9.6676 10.9412 10.0928 10.2041L10.0927 10.2042C10.5177 9.46678 10.9706 8.74581 11.4504 8.0428C12.283 7.9798 13.1369 7.94699 13.9999 7.94699H14C14.8669 7.94699 15.7219 7.98013 16.5543 8.04357C17.0293 8.74552 17.4792 9.46402 17.9035 10.1977C18.3301 10.9333 18.7327 11.6825 19.1105 12.4443C18.7365 13.2138 18.3352 13.9698 17.9074 14.7107ZM20.3749 1.35343C21.3125 1.89418 21.6771 4.07479 21.088 6.9344C21.0504 7.11683 21.0082 7.30266 20.9623 7.49112C19.8005 7.22293 18.5391 7.02354 17.2184 6.89962C16.449 5.80401 15.6518 4.80793 14.8515 3.94562C15.0612 3.74344 15.276 3.5465 15.4955 3.35499C17.5627 1.5561 19.4947 0.845818 20.3749 1.35343ZM14 9.93237C15.3809 9.93237 16.5003 11.0518 16.5003 12.4327C16.5003 13.8135 15.3809 14.933 14 14.933C12.6191 14.933 11.4997 13.8135 11.4997 12.4327C11.4997 11.0518 12.6191 9.93237 14 9.93237Z" fill="#458588"/>
</g>
<defs>
<clipPath id="clip0_7_388">
<rect width="28" height="24.9375" fill="white"/>
</clipPath>
</defs>
</svg>
