<svg width="28" height="30" viewBox="0 0 28 30" fill="none" xmlns="http://www.w3.org/2000/svg">
<g clip-path="url(#clip0_6_244)">
<path d="M14 0.740593C6.27177 0.740593 0 7.01237 0 14.7406C0 22.4688 6.27177 28.7406 14 28.7406C21.7282 28.7406 28 22.4688 28 14.7406C28 7.01237 21.7282 0.740593 14 0.740593ZM19.6847 21.3398C19.4476 21.3398 19.3008 21.2664 19.0806 21.1366C15.5581 19.014 11.4597 18.9237 7.4121 19.7535C7.19194 19.8099 6.90403 19.9003 6.74032 19.9003C6.19274 19.9003 5.84839 19.4656 5.84839 19.0083C5.84839 18.4269 6.19274 18.1503 6.61613 18.0599C11.2395 17.0382 15.9645 17.1285 19.9952 19.539C20.3395 19.7591 20.5427 19.9567 20.5427 20.4704C20.5427 20.9841 20.1419 21.3398 19.6847 21.3398ZM21.2032 17.6366C20.9097 17.6366 20.7121 17.5067 20.5089 17.3995C16.9806 15.3108 11.7194 14.4696 7.03952 15.7398C6.76855 15.8132 6.62177 15.8866 6.36774 15.8866C5.76371 15.8866 5.27258 15.3954 5.27258 14.7914C5.27258 14.1874 5.56613 13.7866 6.14758 13.6229C7.71694 13.1825 9.32016 12.8551 11.6685 12.8551C15.3323 12.8551 18.8718 13.764 21.6605 15.4237C22.1177 15.6946 22.2984 16.0446 22.2984 16.5358C22.2927 17.1454 21.8185 17.6366 21.2032 17.6366ZM22.9532 13.3349C22.6597 13.3349 22.479 13.2616 22.225 13.1148C18.2056 10.7156 11.0194 10.1398 6.36774 11.4382C6.16452 11.4946 5.91048 11.5849 5.63952 11.5849C4.89435 11.5849 4.32419 11.0035 4.32419 10.2527C4.32419 9.48495 4.79839 9.05027 5.30645 8.9035C7.29355 8.32204 9.51774 8.04543 11.9395 8.04543C16.0605 8.04543 20.379 8.9035 23.5347 10.7438C23.975 10.9979 24.2629 11.3479 24.2629 12.0196C24.2629 12.7874 23.6419 13.3349 22.9532 13.3349Z" fill="#458588"/>
</g>
<defs>
<clipPath id="clip0_6_244">
<rect width="28" height="28.9032" fill="white" transform="translate(0 0.288979)"/>
</clipPath>
</defs>
</svg>
