<svg width="28" height="28" viewBox="0 0 28 28" fill="none" xmlns="http://www.w3.org/2000/svg">
<g clip-path="url(#clip0_6_141)">
<path d="M23.459 7.0476C23.0956 5.21564 22.1556 3.54797 20.7766 2.28844C19.3975 1.02891 17.6517 0.243578 15.7944 0.0472681C13.9371 -0.149042 12.0657 0.253967 10.4538 1.19737C8.84191 2.14077 7.5741 3.57509 6.83573 5.2906C6.0077 5.19521 5.16891 5.26983 4.37071 5.50989C3.57252 5.74995 2.83172 6.15039 2.19368 6.68671C1.55563 7.22303 1.03376 7.88393 0.660018 8.62895C0.286278 9.37397 0.0685311 10.1874 0.0201101 11.0195C-0.028311 11.8516 0.0936124 12.6849 0.378415 13.4682C0.663219 14.2516 1.10491 14.9685 1.67644 15.5752C2.24797 16.1819 2.93732 16.6656 3.70229 16.9966C4.46725 17.3277 5.29172 17.4991 6.12523 17.5004H22.7502C24.0822 17.5019 25.3649 16.9971 26.3386 16.0882C27.3123 15.1794 27.9041 13.9344 27.9942 12.6055C28.0843 11.2766 27.6659 9.96316 26.8239 8.93119C25.9818 7.89922 24.7789 7.22589 23.459 7.0476ZM14.8752 1.75035C16.5972 1.75 18.2588 2.38432 19.5424 3.53205C20.8261 4.67978 21.6417 6.26037 21.8332 7.9716C21.857 8.18661 21.9596 8.38518 22.1212 8.52899C22.2828 8.6728 22.4919 8.75167 22.7082 8.75035H22.7502C23.6785 8.75035 24.5687 9.1191 25.2251 9.77548C25.8815 10.4319 26.2502 11.3221 26.2502 12.2504C26.2502 13.1786 25.8815 14.0688 25.2251 14.7252C24.5687 15.3816 23.6785 15.7504 22.7502 15.7504H6.12523C5.50586 15.75 4.89361 15.6182 4.32899 15.3636C3.76437 15.109 3.26024 14.7374 2.84996 14.2734C2.43967 13.8095 2.13258 13.2636 1.949 12.6721C1.76542 12.0806 1.70953 11.4568 1.78503 10.842C1.86054 10.2273 2.06571 9.63557 2.38698 9.10603C2.70825 8.5765 3.13829 8.12121 3.64866 7.7703C4.15903 7.41938 4.73809 7.18083 5.34754 7.07042C5.957 6.96002 6.58294 6.98027 7.18398 7.12985C7.39841 7.18334 7.62513 7.1537 7.8186 7.0469C8.01207 6.9401 8.15797 6.76405 8.22698 6.5541C8.68947 5.15616 9.58081 3.93954 10.7743 3.07717C11.9678 2.21479 13.4028 1.75053 14.8752 1.75035ZM12.343 19.7334C12.4157 19.5882 12.5274 19.4661 12.6656 19.3808C12.8037 19.2955 12.9629 19.2504 13.1252 19.2504H14.8752C15.0138 19.2505 15.1504 19.2835 15.2737 19.3467C15.397 19.4099 15.5035 19.5015 15.5845 19.6139C15.6655 19.7264 15.7187 19.8564 15.7396 19.9934C15.7605 20.1304 15.7485 20.2704 15.7047 20.4019L15.2147 21.8754H16.6252C16.7899 21.8756 16.9511 21.9223 17.0904 22.01C17.2297 22.0978 17.3414 22.2231 17.4127 22.3715C17.484 22.5199 17.512 22.6855 17.4934 22.8491C17.4748 23.0127 17.4105 23.1677 17.3077 23.2964L13.8077 27.6714C13.6829 27.8265 13.5088 27.9344 13.3143 27.9772C13.1198 28.02 12.9165 27.9952 12.7381 27.9069C12.5596 27.8186 12.4166 27.672 12.3326 27.4914C12.2487 27.3108 12.2289 27.107 12.2765 26.9136L12.8802 24.5004H11.3752C11.226 24.5003 11.0793 24.4622 10.949 24.3895C10.8187 24.3168 10.7091 24.212 10.6307 24.085C10.5523 23.9581 10.5077 23.8132 10.5011 23.6641C10.4945 23.515 10.5261 23.3668 10.593 23.2334L12.343 19.7334Z" fill="#B6CBD4"/>
</g>
<defs>
<clipPath id="clip0_6_141">
<rect width="28" height="28" fill="white"/>
</clipPath>
</defs>
</svg>
