<svg width="28" height="28" viewBox="0 0 28 28" fill="none" xmlns="http://www.w3.org/2000/svg">
<path d="M25.1218 8.29706C25.1396 8.54578 25.1396 8.79455 25.1396 9.04327C25.1396 16.6295 19.3655 25.3707 8.81218 25.3707C5.5609 25.3707 2.54062 24.429 0 22.7946C0.461945 22.8478 0.906062 22.8656 1.38578 22.8656C4.06848 22.8656 6.53805 21.9595 8.51014 20.4138C5.9873 20.3605 3.87308 18.7083 3.14464 16.4341C3.5 16.4874 3.8553 16.5229 4.22844 16.5229C4.74365 16.5229 5.25891 16.4518 5.73858 16.3275C3.10915 15.7945 1.13701 13.4849 1.13701 10.6955V10.6245C1.90094 11.0509 2.78934 11.3174 3.73089 11.3529C2.1852 10.3224 1.17255 8.56355 1.17255 6.57369C1.17255 5.50773 1.45677 4.53057 1.95426 3.67777C4.77914 7.16 9.02535 9.43407 13.7867 9.68284C13.6979 9.25644 13.6446 8.81233 13.6446 8.36816C13.6446 5.20569 16.203 2.62958 19.3832 2.62958C21.0354 2.62958 22.5278 3.32247 23.5761 4.44176C24.873 4.19304 26.1166 3.71332 27.2182 3.05598C26.7917 4.38849 25.8857 5.50778 24.6953 6.21839C25.8502 6.09409 26.9695 5.77422 27.9999 5.3301C27.2183 6.46711 26.2411 7.47976 25.1218 8.29706Z" fill="#458588"/>
</svg>
