<svg width="28" height="32" viewBox="0 0 28 32" fill="none" xmlns="http://www.w3.org/2000/svg">
<path d="M23.8062 6.06884C21.1875 3.44384 17.7 2.00009 13.9937 2.00009C6.34375 2.00009 0.11875 8.22509 0.11875 15.8751C0.11875 18.3188 0.75625 20.7063 1.96875 22.8126L0 30.0001L7.35625 28.0688C9.38125 29.1751 11.6625 29.7563 13.9875 29.7563H13.9937C21.6375 29.7563 28 23.5313 28 15.8813C28 12.1751 26.425 8.69384 23.8062 6.06884ZM13.9937 27.4188C11.9187 27.4188 9.8875 26.8626 8.11875 25.8126L7.7 25.5626L3.3375 26.7063L4.5 22.4501L4.225 22.0126C3.06875 20.1751 2.4625 18.0563 2.4625 15.8751C2.4625 9.51884 7.6375 4.34384 14 4.34384C17.0812 4.34384 19.975 5.54384 22.15 7.72509C24.325 9.90634 25.6625 12.8001 25.6562 15.8813C25.6562 22.2438 20.35 27.4188 13.9937 27.4188ZM20.3188 18.7813C19.975 18.6063 18.2688 17.7688 17.95 17.6563C17.6313 17.5376 17.4 17.4813 17.1688 17.8313C16.9375 18.1813 16.275 18.9563 16.0688 19.1938C15.8688 19.4251 15.6625 19.4563 15.3188 19.2813C13.2812 18.2626 11.9438 17.4626 10.6 15.1563C10.2438 14.5438 10.9562 14.5876 11.6187 13.2626C11.7312 13.0313 11.675 12.8313 11.5875 12.6563C11.5 12.4813 10.8063 10.7751 10.5188 10.0813C10.2375 9.40634 9.95 9.50009 9.7375 9.48759C9.5375 9.47509 9.30625 9.47509 9.075 9.47509C8.84375 9.47509 8.46875 9.56259 8.15 9.90634C7.83125 10.2563 6.9375 11.0938 6.9375 12.8001C6.9375 14.5063 8.18125 16.1563 8.35 16.3876C8.525 16.6188 10.7937 20.1188 14.275 21.6251C16.475 22.5751 17.3375 22.6563 18.4375 22.4938C19.1063 22.3938 20.4875 21.6563 20.775 20.8438C21.0625 20.0313 21.0625 19.3376 20.975 19.1938C20.8938 19.0376 20.6625 18.9501 20.3188 18.7813Z" fill="#458588"/>
</svg>
