<svg width="28" height="25" viewBox="0 0 28 25" fill="none" xmlns="http://www.w3.org/2000/svg">
<path d="M26.7195 6.0319C26.4142 4.88225 25.5146 3.97682 24.3724 3.66955C22.302 3.1112 14.0002 3.1112 14.0002 3.1112C14.0002 3.1112 5.69836 3.1112 3.62796 3.66955C2.48575 3.97687 1.58615 4.88225 1.28082 6.0319C0.726074 8.11572 0.726074 12.4634 0.726074 12.4634C0.726074 12.4634 0.726074 16.8111 1.28082 18.8949C1.58615 20.0445 2.48575 20.9123 3.62796 21.2195C5.69836 21.7779 14.0002 21.7779 14.0002 21.7779C14.0002 21.7779 22.302 21.7779 24.3724 21.2195C25.5146 20.9123 26.4142 20.0445 26.7195 18.8949C27.2743 16.8111 27.2743 12.4634 27.2743 12.4634C27.2743 12.4634 27.2743 8.11572 26.7195 6.0319V6.0319ZM11.285 16.4108V8.51603L18.2237 12.4635L11.285 16.4108V16.4108Z" fill="#458588"/>
</svg>
